<svg width="18" height="12" viewBox="0 0 18 12" fill="none" xmlns="http://www.w3.org/2000/svg">
<mask id="path-1-outside-1_249_5" maskUnits="userSpaceOnUse" x="-0.900391" y="-0.900024" width="19" height="13" fill="black">
<rect fill="white" x="-0.900391" y="-0.900024" width="19" height="13"/>
<path d="M4.25488 0.781616C5.37685 0.781674 6.34643 1.00016 7.16309 1.43689C7.9833 1.87012 8.61572 2.4952 9.05957 3.31189C9.33145 3.80608 9.51835 4.36048 9.625 4.974C9.9352 4.54493 10.3267 4.19718 10.7988 3.93005C11.4203 3.57849 12.1539 3.40271 12.999 3.40271C13.6168 3.40274 14.1761 3.49809 14.6768 3.68982C15.1774 3.88157 15.6049 4.16099 15.96 4.52673C16.315 4.88884 16.5885 5.32878 16.7803 5.84705C16.972 6.36551 17.0684 6.95012 17.0684 7.59998V8.28162H11.7412V8.40955C11.7412 8.67233 11.7971 8.9067 11.9072 9.11267C12.0173 9.3185 12.175 9.4799 12.3809 9.59705C12.5868 9.71423 12.8358 9.77283 13.127 9.77283C13.3292 9.77279 13.5139 9.74465 13.6807 9.68787C13.8511 9.63105 13.9965 9.54926 14.1172 9.44275C14.2378 9.33275 14.327 9.20174 14.3838 9.04919H17.0684C16.976 9.61719 16.7575 10.1107 16.4131 10.5297C16.0686 10.9451 15.6121 11.2686 15.0439 11.4994C14.4794 11.7266 13.8187 11.8402 13.0625 11.8402C12.189 11.8402 11.4358 11.673 10.8037 11.3392C10.1753 11.0019 9.69046 10.5185 9.34961 9.89001C9.23094 9.66759 9.13452 9.42934 9.05762 9.17615C8.61406 9.98412 7.98834 10.6065 7.17871 11.0414C6.36555 11.4745 5.40471 11.6908 4.29688 11.6908H0.0996094V0.781616H4.25488ZM3.06152 9.17615H4.19043C4.7302 9.17615 5.19034 9.08941 5.57031 8.91541C5.95373 8.74138 6.24453 8.44107 6.44336 8.01501C6.64569 7.58897 6.74703 6.99633 6.74707 6.23669C6.74707 5.4769 6.64436 4.88352 6.43848 4.4574C6.23613 4.03141 5.93792 3.73104 5.54395 3.55701C5.15336 3.38302 4.67357 3.29628 4.10547 3.29626H3.06152V9.17615ZM13.0625 5.46912C12.8246 5.46914 12.606 5.52046 12.4072 5.62341C12.2084 5.72284 12.0485 5.8619 11.9277 6.03943C11.8107 6.21691 11.7483 6.42471 11.7412 6.66248H14.3623C14.3588 6.42812 14.2988 6.22186 14.1816 6.04431C14.068 5.8632 13.9131 5.72284 13.7178 5.62341C13.5261 5.52049 13.3075 5.46912 13.0625 5.46912ZM13.9365 2.48669H11.9971L10.3994 0.0999756H12.9131L13.9365 2.48669Z"/>
</mask>
<path d="M4.25488 0.781616C5.37685 0.781674 6.34643 1.00016 7.16309 1.43689C7.9833 1.87012 8.61572 2.4952 9.05957 3.31189C9.33145 3.80608 9.51835 4.36048 9.625 4.974C9.9352 4.54493 10.3267 4.19718 10.7988 3.93005C11.4203 3.57849 12.1539 3.40271 12.999 3.40271C13.6168 3.40274 14.1761 3.49809 14.6768 3.68982C15.1774 3.88157 15.6049 4.16099 15.96 4.52673C16.315 4.88884 16.5885 5.32878 16.7803 5.84705C16.972 6.36551 17.0684 6.95012 17.0684 7.59998V8.28162H11.7412V8.40955C11.7412 8.67233 11.7971 8.9067 11.9072 9.11267C12.0173 9.3185 12.175 9.4799 12.3809 9.59705C12.5868 9.71423 12.8358 9.77283 13.127 9.77283C13.3292 9.77279 13.5139 9.74465 13.6807 9.68787C13.8511 9.63105 13.9965 9.54926 14.1172 9.44275C14.2378 9.33275 14.327 9.20174 14.3838 9.04919H17.0684C16.976 9.61719 16.7575 10.1107 16.4131 10.5297C16.0686 10.9451 15.6121 11.2686 15.0439 11.4994C14.4794 11.7266 13.8187 11.8402 13.0625 11.8402C12.189 11.8402 11.4358 11.673 10.8037 11.3392C10.1753 11.0019 9.69046 10.5185 9.34961 9.89001C9.23094 9.66759 9.13452 9.42934 9.05762 9.17615C8.61406 9.98412 7.98834 10.6065 7.17871 11.0414C6.36555 11.4745 5.40471 11.6908 4.29688 11.6908H0.0996094V0.781616H4.25488ZM3.06152 9.17615H4.19043C4.7302 9.17615 5.19034 9.08941 5.57031 8.91541C5.95373 8.74138 6.24453 8.44107 6.44336 8.01501C6.64569 7.58897 6.74703 6.99633 6.74707 6.23669C6.74707 5.4769 6.64436 4.88352 6.43848 4.4574C6.23613 4.03141 5.93792 3.73104 5.54395 3.55701C5.15336 3.38302 4.67357 3.29628 4.10547 3.29626H3.06152V9.17615ZM13.0625 5.46912C12.8246 5.46914 12.606 5.52046 12.4072 5.62341C12.2084 5.72284 12.0485 5.8619 11.9277 6.03943C11.8107 6.21691 11.7483 6.42471 11.7412 6.66248H14.3623C14.3588 6.42812 14.2988 6.22186 14.1816 6.04431C14.068 5.8632 13.9131 5.72284 13.7178 5.62341C13.5261 5.52049 13.3075 5.46912 13.0625 5.46912ZM13.9365 2.48669H11.9971L10.3994 0.0999756H12.9131L13.9365 2.48669Z" fill="url(#paint0_linear_249_5)"/>
<path d="M4.25488 0.781616L4.25489 0.681616H4.25488V0.781616ZM7.16309 1.43689L7.11593 1.52507L7.11638 1.52531L7.16309 1.43689ZM9.05957 3.31189L8.97171 3.35964L8.97195 3.36009L9.05957 3.31189ZM9.625 4.974L9.52648 4.99113L9.56709 5.22477L9.70604 5.03259L9.625 4.974ZM10.7988 3.93005L10.7496 3.84302L10.7496 3.84302L10.7988 3.93005ZM12.999 3.40271L12.999 3.30271H12.999V3.40271ZM14.6768 3.68982L14.7125 3.59643V3.59643L14.6768 3.68982ZM15.96 4.52673L15.8882 4.59639L15.8886 4.59674L15.96 4.52673ZM16.7803 5.84705L16.8741 5.81236L16.8741 5.81235L16.7803 5.84705ZM17.0684 8.28162V8.38162H17.1684V8.28162H17.0684ZM11.7412 8.28162V8.18162H11.6412V8.28162H11.7412ZM11.9072 9.11267L11.819 9.15981L11.819 9.15982L11.9072 9.11267ZM12.3809 9.59705L12.3314 9.68396L12.3314 9.68396L12.3809 9.59705ZM13.127 9.77283V9.87283H13.127L13.127 9.77283ZM13.6807 9.68787L13.649 9.593L13.6484 9.5932L13.6807 9.68787ZM14.1172 9.44275L14.1834 9.51774L14.1846 9.51664L14.1172 9.44275ZM14.3838 9.04919V8.94919H14.3143L14.2901 9.01429L14.3838 9.04919ZM17.0684 9.04919L17.1671 9.06525L17.1859 8.94919H17.0684V9.04919ZM16.4131 10.5297L16.4901 10.5935L16.4903 10.5932L16.4131 10.5297ZM15.0439 11.4994L15.0813 11.5922L15.0816 11.592L15.0439 11.4994ZM13.0625 11.8402L13.0625 11.9402H13.0625V11.8402ZM10.8037 11.3392L10.7564 11.4273L10.757 11.4277L10.8037 11.3392ZM9.34961 9.89001L9.26138 9.93709L9.26171 9.93769L9.34961 9.89001ZM9.05762 9.17615L9.1533 9.14708L9.08426 8.91981L8.96996 9.12803L9.05762 9.17615ZM7.17871 11.0414L7.22572 11.1296L7.22603 11.1295L7.17871 11.0414ZM0.0996094 11.6908H-0.000390626V11.7908H0.0996094V11.6908ZM0.0996094 0.781616V0.681616H-0.000390626V0.781616H0.0996094ZM3.06152 9.17615H2.96152V9.27615H3.06152V9.17615ZM5.57031 8.91541L5.52898 8.82434L5.52868 8.82449L5.57031 8.91541ZM6.44336 8.01501L6.35303 7.97212L6.35274 7.97273L6.44336 8.01501ZM6.74707 6.23669L6.84707 6.2367V6.23669H6.74707ZM6.43848 4.4574L6.34815 4.5003L6.34844 4.5009L6.43848 4.4574ZM5.54395 3.55701L5.50325 3.64835L5.50354 3.64848L5.54395 3.55701ZM4.10547 3.29626L4.10547 3.19626H4.10547V3.29626ZM3.06152 3.29626V3.19626H2.96152V3.29626H3.06152ZM13.0625 5.46912V5.36912H13.0625L13.0625 5.46912ZM12.4072 5.62341L12.452 5.71286L12.4532 5.71221L12.4072 5.62341ZM11.9277 6.03943L11.845 5.98319L11.8443 5.98438L11.9277 6.03943ZM11.7412 6.66248L11.6413 6.65949L11.6382 6.76248H11.7412V6.66248ZM14.3623 6.66248V6.76248H14.4638L14.4623 6.66096L14.3623 6.66248ZM14.1816 6.04431L14.0969 6.09747L14.0982 6.09939L14.1816 6.04431ZM13.7178 5.62341L13.6705 5.71154L13.6724 5.71253L13.7178 5.62341ZM13.9365 2.48669V2.58669H14.0882L14.0284 2.44728L13.9365 2.48669ZM11.9971 2.48669L11.914 2.54232L11.9437 2.58669H11.9971V2.48669ZM10.3994 0.0999756V-2.44156e-05H10.2121L10.3163 0.155602L10.3994 0.0999756ZM12.9131 0.0999756L13.005 0.0605655L12.979 -2.44156e-05H12.9131V0.0999756ZM4.25488 0.781616L4.25488 0.881616C5.36385 0.881673 6.31654 1.09758 7.11593 1.52507L7.16309 1.43689L7.21024 1.34871C6.37632 0.902739 5.38986 0.681674 4.25489 0.681616L4.25488 0.781616ZM7.16309 1.43689L7.11638 1.52531C7.91914 1.94933 8.53725 2.56024 8.97171 3.35964L9.05957 3.31189L9.14743 3.26414C8.69418 2.43015 8.04745 1.79092 7.20979 1.34847L7.16309 1.43689ZM9.05957 3.31189L8.97195 3.36009C9.23786 3.84341 9.42147 4.38708 9.52648 4.99113L9.625 4.974L9.72352 4.95687C9.61522 4.33388 9.42505 3.76875 9.14719 3.26369L9.05957 3.31189ZM9.625 4.974L9.70604 5.03259C10.0076 4.61552 10.3881 4.27734 10.8481 4.01709L10.7988 3.93005L10.7496 3.84302C10.2653 4.11701 9.86284 4.47435 9.54396 4.91541L9.625 4.974ZM10.7988 3.93005L10.8481 4.01709C11.4519 3.67547 12.1679 3.50271 12.999 3.50271V3.40271V3.30271C12.1398 3.30271 11.3886 3.48151 10.7496 3.84302L10.7988 3.93005ZM12.999 3.40271L12.999 3.50271C13.6065 3.50274 14.1534 3.59648 14.641 3.78321L14.6768 3.68982L14.7125 3.59643C14.1988 3.3997 13.6271 3.30274 12.999 3.30271L12.999 3.40271ZM14.6768 3.68982L14.641 3.78321C15.1287 3.97 15.5437 4.24154 15.8882 4.59639L15.96 4.52673L16.0317 4.45707C15.666 4.08043 15.2262 3.79315 14.7125 3.59643L14.6768 3.68982ZM15.96 4.52673L15.8886 4.59674C16.2329 4.94794 16.4992 5.37553 16.6865 5.88175L16.7803 5.84705L16.8741 5.81235C16.6778 5.28203 16.3971 4.82975 16.0314 4.45673L15.96 4.52673ZM16.7803 5.84705L16.6865 5.88174C16.8735 6.38737 16.9684 6.95997 16.9684 7.59998H17.0684H17.1684C17.1684 6.94027 17.0706 6.34365 16.8741 5.81236L16.7803 5.84705ZM17.0684 7.59998H16.9684V8.28162H17.0684H17.1684V7.59998H17.0684ZM17.0684 8.28162V8.18162H11.7412V8.28162V8.38162H17.0684V8.28162ZM11.7412 8.28162H11.6412V8.40955H11.7412H11.8412V8.28162H11.7412ZM11.7412 8.40955H11.6412C11.6412 8.68695 11.7004 8.93781 11.819 9.15981L11.9072 9.11267L11.9954 9.06553C11.8939 8.8756 11.8412 8.65771 11.8412 8.40955H11.7412ZM11.9072 9.11267L11.819 9.15982C11.9381 9.38253 12.1094 9.55761 12.3314 9.68396L12.3809 9.59705L12.4303 9.51014C12.2407 9.40219 12.0964 9.25447 11.9954 9.06552L11.9072 9.11267ZM12.3809 9.59705L12.3314 9.68396C12.5555 9.81149 12.8224 9.87283 13.127 9.87283V9.77283V9.67283C12.8491 9.67283 12.6181 9.61698 12.4303 9.51013L12.3809 9.59705ZM13.127 9.77283L13.127 9.87283C13.3385 9.87279 13.5342 9.84336 13.7129 9.78253L13.6807 9.68787L13.6484 9.5932C13.4935 9.64595 13.32 9.6728 13.1269 9.67283L13.127 9.77283ZM13.6807 9.68787L13.7123 9.78273C13.894 9.72214 14.0515 9.63404 14.1833 9.51773L14.1172 9.44275L14.051 9.36776C13.9414 9.46447 13.8081 9.53996 13.649 9.593L13.6807 9.68787ZM14.1172 9.44275L14.1846 9.51664C14.3168 9.3961 14.415 9.25179 14.4775 9.0841L14.3838 9.04919L14.2901 9.01429C14.2389 9.15169 14.1589 9.2694 14.0498 9.36885L14.1172 9.44275ZM14.3838 9.04919V9.14919H17.0684V9.04919V8.94919H14.3838V9.04919ZM17.0684 9.04919L16.9697 9.03314C16.8799 9.5848 16.6683 10.0617 16.3358 10.4662L16.4131 10.5297L16.4903 10.5932C16.8466 10.1598 17.072 9.64959 17.1671 9.06525L17.0684 9.04919ZM16.4131 10.5297L16.3361 10.4658C16.0035 10.8669 15.5612 11.1813 15.0063 11.4067L15.0439 11.4994L15.0816 11.592C15.6629 11.3559 16.1337 11.0233 16.4901 10.5935L16.4131 10.5297ZM15.0439 11.4994L15.0066 11.4066C14.4564 11.628 13.8089 11.7402 13.0625 11.7402V11.8402V11.9402C13.8285 11.9402 14.5024 11.8251 15.0813 11.5922L15.0439 11.4994ZM13.0625 11.8402L13.0625 11.7402C12.2017 11.7402 11.4652 11.5755 10.8504 11.2508L10.8037 11.3392L10.757 11.4277C11.4063 11.7705 12.1763 11.9402 13.0625 11.9402L13.0625 11.8402ZM10.8037 11.3392L10.851 11.2511C10.2399 10.923 9.76909 10.4537 9.43751 9.84234L9.34961 9.89001L9.26171 9.93769C9.61182 10.5832 10.1108 11.0807 10.7564 11.4273L10.8037 11.3392ZM9.34961 9.89001L9.43784 9.84294C9.32255 9.62686 9.22852 9.39473 9.1533 9.14708L9.05762 9.17615L8.96193 9.20521C9.04053 9.46395 9.13933 9.70833 9.26138 9.93709L9.34961 9.89001ZM9.05762 9.17615L8.96996 9.12803C8.53562 9.9192 7.92385 10.5276 7.13139 10.9533L7.17871 11.0414L7.22603 11.1295C8.05283 10.6854 8.6925 10.049 9.14528 9.22427L9.05762 9.17615ZM7.17871 11.0414L7.1317 10.9531C6.33569 11.3771 5.39164 11.5908 4.29688 11.5908V11.6908V11.7908C5.41778 11.7908 6.39542 11.5719 7.22572 11.1296L7.17871 11.0414ZM4.29688 11.6908V11.5908H0.0996094V11.6908V11.7908H4.29688V11.6908ZM0.0996094 11.6908H0.199609V0.781616H0.0996094H-0.000390626V11.6908H0.0996094ZM0.0996094 0.781616V0.881616H4.25488V0.781616V0.681616H0.0996094V0.781616ZM3.06152 9.17615V9.27615H4.19043V9.17615V9.07615H3.06152V9.17615ZM4.19043 9.17615V9.27615C4.7405 9.27615 5.21565 9.18781 5.61195 9.00632L5.57031 8.91541L5.52868 8.82449C5.16503 8.99102 4.71991 9.07615 4.19043 9.07615V9.17615ZM5.57031 8.91541L5.61164 9.00646C6.0194 8.8214 6.32635 8.50221 6.53398 8.0573L6.44336 8.01501L6.35274 7.97273C6.16271 8.37993 5.88806 8.66137 5.52898 8.82435L5.57031 8.91541ZM6.44336 8.01501L6.53369 8.05791C6.7451 7.61274 6.84703 7.00317 6.84707 6.2367L6.74707 6.23669L6.64707 6.23669C6.64703 6.9895 6.54627 7.5652 6.35303 7.97212L6.44336 8.01501ZM6.74707 6.23669H6.84707C6.84707 5.46999 6.74376 4.85938 6.52852 4.41389L6.43848 4.4574L6.34844 4.5009C6.54496 4.90765 6.64707 5.48381 6.64707 6.23669H6.74707ZM6.43848 4.4574L6.5288 4.41449C6.31724 3.9691 6.00242 3.65021 5.58435 3.46553L5.54395 3.55701L5.50354 3.64848C5.87342 3.81187 6.15502 4.09371 6.34815 4.5003L6.43848 4.4574ZM5.54395 3.55701L5.58464 3.46566C5.17774 3.2844 4.68316 3.19628 4.10547 3.19626L4.10547 3.29626L4.10547 3.39626C4.66398 3.39628 5.12898 3.48163 5.50325 3.64835L5.54395 3.55701ZM4.10547 3.29626V3.19626H3.06152V3.29626V3.39626H4.10547V3.29626ZM3.06152 3.29626H2.96152V9.17615H3.06152H3.16152V3.29626H3.06152ZM13.0625 5.46912L13.0625 5.36912C12.8097 5.36914 12.5752 5.42381 12.3612 5.53461L12.4072 5.62341L12.4532 5.71221C12.6369 5.6171 12.8396 5.56914 13.0625 5.56912L13.0625 5.46912ZM12.4072 5.62341L12.3625 5.53397C12.1489 5.64081 11.9757 5.79111 11.845 5.9832L11.9277 6.03943L12.0104 6.09566C12.1212 5.9327 12.268 5.80487 12.452 5.71285L12.4072 5.62341ZM11.9277 6.03943L11.8443 5.98438C11.7159 6.17907 11.6488 6.40535 11.6413 6.65949L11.7412 6.66248L11.8412 6.66546C11.8478 6.44406 11.9055 6.25474 12.0112 6.09448L11.9277 6.03943ZM11.7412 6.66248V6.76248H14.3623V6.66248V6.56248H11.7412V6.66248ZM14.3623 6.66248L14.4623 6.66096C14.4585 6.40971 14.3939 6.18442 14.2651 5.98923L14.1816 6.04431L14.0982 6.09939C14.2037 6.2593 14.259 6.44652 14.2623 6.66399L14.3623 6.66248ZM14.1816 6.04431L14.2663 5.99116C14.1428 5.79426 13.9741 5.64169 13.7631 5.5343L13.7178 5.62341L13.6724 5.71253C13.8521 5.804 13.9932 5.93214 14.0969 6.09746L14.1816 6.04431ZM13.7178 5.62341L13.7651 5.53531C13.557 5.42362 13.3218 5.36912 13.0625 5.36912V5.46912V5.56912C13.2931 5.56912 13.4951 5.61737 13.6705 5.71152L13.7178 5.62341ZM13.9365 2.48669V2.38669H11.9971V2.48669V2.58669H13.9365V2.48669ZM11.9971 2.48669L12.0802 2.43107L10.4825 0.0443487L10.3994 0.0999756L10.3163 0.155602L11.914 2.54232L11.9971 2.48669ZM10.3994 0.0999756V0.199976H12.9131V0.0999756V-2.44156e-05H10.3994V0.0999756ZM12.9131 0.0999756L12.8212 0.139386L13.8446 2.5261L13.9365 2.48669L14.0284 2.44728L13.005 0.0605655L12.9131 0.0999756Z" fill="white" mask="url(#path-1-outside-1_249_5)"/>
<defs>
<linearGradient id="paint0_linear_249_5" x1="-0.103516" y1="0.690796" x2="14.8965" y2="11.6908" gradientUnits="userSpaceOnUse">
<stop stop-color="#FFFB00"/>
<stop offset="1" stop-color="#FF0022"/>
</linearGradient>
</defs>
</svg>
