<svg width="23" height="15" viewBox="0 0 23 15" fill="none" xmlns="http://www.w3.org/2000/svg">
<g clip-path="url(#clip0_249_21)">
<path d="M5.43647 0.97705C6.87009 0.977123 8.109 1.25023 9.15251 1.79614C10.2006 2.33768 11.0087 3.11903 11.5758 4.13989C11.9232 4.75763 12.162 5.45063 12.2983 6.21753C12.6947 5.68119 13.1949 5.24651 13.7981 4.91259C14.5923 4.47314 15.5297 4.25342 16.6095 4.25342C17.3989 4.25346 18.1136 4.37264 18.7534 4.61231C19.393 4.85199 19.9393 5.20127 20.393 5.65844C20.8466 6.11108 21.1961 6.66101 21.4412 7.30884C21.6861 7.95692 21.8093 8.68768 21.8093 9.50001V10.3521H15.0023V10.512C15.0023 10.8404 15.0737 11.1334 15.2144 11.3909C15.3551 11.6482 15.5566 11.8499 15.8197 11.9963C16.0828 12.1428 16.401 12.2161 16.7731 12.2161C17.0314 12.216 17.2674 12.1808 17.4806 12.1099C17.6983 12.0388 17.8841 11.9366 18.0383 11.8035C18.1924 11.666 18.3064 11.5022 18.379 11.3115H21.8093C21.6912 12.0215 21.412 12.6384 20.972 13.1622C20.5318 13.6814 19.9485 14.0858 19.2224 14.3743C18.5011 14.6583 17.6569 14.8003 16.6906 14.8003C15.5745 14.8003 14.6121 14.5913 13.8044 14.174C13.0014 13.7524 12.3819 13.1482 11.9464 12.3625C11.7948 12.0845 11.6716 11.7867 11.5733 11.4702C11.0065 12.4802 10.207 13.2582 9.17247 13.8018C8.13343 14.3432 6.90569 14.6135 5.49013 14.6135H0.126953V0.97705H5.43647ZM3.91162 11.4702H5.35411C6.04382 11.4702 6.63178 11.3618 7.11729 11.1443C7.60722 10.9268 7.9788 10.5514 8.23286 10.0188C8.49139 9.48624 8.62088 8.74544 8.62093 7.79589C8.62093 6.84616 8.48969 6.10443 8.22662 5.57178C7.96806 5.03929 7.58702 4.66383 7.08361 4.44629C6.58452 4.22881 5.97146 4.12038 5.24555 4.12036H3.91162V11.4702ZM16.6906 6.83643C16.3867 6.83646 16.1073 6.90061 15.8533 7.02929C15.5993 7.15358 15.395 7.32741 15.2406 7.54932C15.0911 7.77117 15.0114 8.03092 15.0023 8.32813H18.3515C18.347 8.03518 18.2704 7.77736 18.1206 7.55542C17.9755 7.32903 17.7775 7.15358 17.528 7.02929C17.283 6.90064 17.0037 6.83643 16.6906 6.83643ZM17.8074 3.10839H15.3293L13.2878 0.125H16.4997L17.8074 3.10839Z" fill="url(#paint0_linear_249_21)"/>
<mask id="mask0_249_21" style="mask-type:luminance" maskUnits="userSpaceOnUse" x="-2" y="-2" width="26" height="18">
<path d="M23.1274 -1.125H-1.15039V15.125H23.1274V-1.125Z" fill="white"/>
<path d="M5.43647 0.97705C6.87009 0.977123 8.109 1.25023 9.15251 1.79614C10.2006 2.33768 11.0087 3.11903 11.5758 4.13989C11.9232 4.75763 12.162 5.45063 12.2983 6.21753C12.6947 5.68119 13.1949 5.24651 13.7981 4.91259C14.5923 4.47314 15.5297 4.25342 16.6095 4.25342C17.3989 4.25346 18.1136 4.37264 18.7534 4.61231C19.393 4.85199 19.9393 5.20127 20.393 5.65844C20.8466 6.11108 21.1961 6.66101 21.4412 7.30884C21.6861 7.95692 21.8093 8.68768 21.8093 9.50001V10.3521H15.0023V10.512C15.0023 10.8404 15.0737 11.1334 15.2144 11.3909C15.3551 11.6482 15.5566 11.8499 15.8197 11.9963C16.0828 12.1428 16.401 12.2161 16.7731 12.2161C17.0314 12.216 17.2674 12.1808 17.4806 12.1099C17.6983 12.0388 17.8841 11.9366 18.0383 11.8035C18.1924 11.666 18.3064 11.5022 18.379 11.3115H21.8093C21.6912 12.0215 21.412 12.6384 20.972 13.1622C20.5318 13.6814 19.9485 14.0858 19.2224 14.3743C18.5011 14.6583 17.6569 14.8003 16.6906 14.8003C15.5745 14.8003 14.6121 14.5913 13.8044 14.174C13.0014 13.7524 12.3819 13.1482 11.9464 12.3625C11.7948 12.0845 11.6716 11.7867 11.5733 11.4702C11.0065 12.4802 10.207 13.2582 9.17247 13.8018C8.13343 14.3432 6.90569 14.6135 5.49013 14.6135H0.126953V0.97705H5.43647ZM3.91162 11.4702H5.35411C6.04382 11.4702 6.63178 11.3618 7.11729 11.1443C7.60722 10.9268 7.9788 10.5514 8.23286 10.0188C8.49139 9.48624 8.62088 8.74544 8.62093 7.79589C8.62093 6.84616 8.48969 6.10443 8.22662 5.57178C7.96806 5.03929 7.58702 4.66383 7.08361 4.44629C6.58452 4.22881 5.97146 4.12038 5.24555 4.12036H3.91162V11.4702ZM16.6906 6.83643C16.3867 6.83646 16.1073 6.90061 15.8533 7.02929C15.5993 7.15358 15.395 7.32741 15.2406 7.54932C15.0911 7.77117 15.0114 8.03092 15.0023 8.32813H18.3515C18.347 8.03518 18.2704 7.77736 18.1206 7.55542C17.9755 7.32903 17.7775 7.15358 17.528 7.02929C17.283 6.90064 17.0037 6.83643 16.6906 6.83643ZM17.8074 3.10839H15.3293L13.2878 0.125H16.4997L17.8074 3.10839Z" fill="black"/>
</mask>
<g mask="url(#mask0_249_21)">
<path d="M12.2991 6.21753L12.1732 6.23894L12.2251 6.53099L12.4027 6.29077L12.2991 6.21753ZM21.8101 10.3521V10.4771H21.9379V10.3521H21.8101ZM15.0031 10.3521V10.2271H14.8754V10.3521H15.0031ZM18.0391 11.8035L18.1237 11.8972L18.1253 11.8958L18.0391 11.8035ZM18.3798 11.3115V11.1865H18.291L18.2601 11.2679L18.3798 11.3115ZM21.8101 11.3115L21.9362 11.3316L21.9603 11.1865H21.8101V11.3115ZM11.5741 11.4702L11.6964 11.4339L11.6082 11.1498L11.4621 11.4101L11.5741 11.4702ZM0.127778 14.6135H0V14.7385H0.127778V14.6135ZM0.127778 0.977051V0.852051H0V0.977051H0.127778ZM3.91244 11.4702H3.78466V11.5952H3.91244V11.4702ZM3.91244 4.12036V3.99536H3.78466V4.12036H3.91244ZM15.8541 7.02929L15.9114 7.14111L15.9129 7.14029L15.8541 7.02929ZM15.2414 7.54932L15.1358 7.47902L15.1349 7.48051L15.2414 7.54932ZM15.0031 8.32813L14.8755 8.32439L14.8715 8.45313H15.0031V8.32813ZM18.3523 8.32813V8.45313H18.482L18.4801 8.32623L18.3523 8.32813ZM18.1214 7.55542L18.0132 7.62187L18.0149 7.62427L18.1214 7.55542ZM17.5288 7.02929L17.4684 7.13946L17.4708 7.14069L17.5288 7.02929ZM17.8082 3.10839V3.23339H18.0021L17.9257 3.05913L17.8082 3.10839ZM15.3301 3.10839L15.2239 3.17793L15.2619 3.23339H15.3301V3.10839ZM13.2886 0.125V0H13.0493L13.1824 0.194533L13.2886 0.125ZM16.5006 0.125L16.618 0.0757374L16.5848 0H16.5006V0.125ZM5.43729 0.977051V1.10205C6.85431 1.10212 8.07163 1.37201 9.09308 1.90637L9.15334 1.79614L9.21358 1.68592C8.14802 1.12845 6.88754 0.852123 5.4373 0.852051L5.43729 0.977051ZM9.15334 1.79614L9.09308 1.90637C10.1188 2.43639 10.9092 3.20033 11.4644 4.19958L11.5766 4.13989L11.6889 4.08021C11.1097 3.03772 10.2839 2.23898 9.21358 1.68592L9.15334 1.79614ZM11.5766 4.13989L11.4644 4.19958C11.8041 4.80373 12.039 5.48388 12.1732 6.23894L12.2991 6.21753L12.425 6.19612C12.2866 5.41738 12.0439 4.71153 11.6889 4.08021L11.5766 4.13989ZM12.2991 6.21753L12.4027 6.29077C12.788 5.76943 13.2742 5.34671 13.862 5.02139L13.799 4.91259L13.7361 4.80381C13.1173 5.14629 12.603 5.59297 12.1956 6.14429L12.2991 6.21753ZM13.799 4.91259L13.862 5.02139C14.6335 4.59437 15.5484 4.37842 16.6103 4.37842V4.25342V4.12842C15.5125 4.12842 14.5526 4.35192 13.7361 4.80381L13.799 4.91259ZM16.6103 4.25342V4.37842C17.3866 4.37846 18.0854 4.49563 18.7084 4.72904L18.7542 4.61231L18.7998 4.49557C18.1434 4.24966 17.4129 4.12846 16.6103 4.12842V4.25342ZM18.7542 4.61231L18.7084 4.72904C19.3316 4.96253 19.8619 5.30196 20.3021 5.74552L20.3938 5.65844L20.4855 5.57137C20.0182 5.10057 19.4562 4.74147 18.7998 4.49557L18.7542 4.61231ZM20.3938 5.65844L20.3021 5.74552C20.742 6.18452 21.0828 6.71944 21.3221 7.35222L21.442 7.30884L21.5618 7.26548C21.311 6.60258 20.9527 6.03764 20.4855 5.57137L20.3938 5.65844ZM21.442 7.30884L21.3221 7.35222C21.5611 7.98426 21.6823 8.69999 21.6823 9.50001H21.8101H21.9379C21.9379 8.67537 21.8129 7.92959 21.5618 7.26548L21.442 7.30884ZM21.8101 9.50001H21.6823V10.3521H21.8101H21.9379V9.50001H21.8101ZM21.8101 10.3521V10.2271H15.0031V10.3521V10.4771H21.8101V10.3521ZM15.0031 10.3521H14.8754V10.512H15.0031H15.1309V10.3521H15.0031ZM15.0031 10.512H14.8754C14.8754 10.8587 14.951 11.1723 15.1026 11.4498L15.2153 11.3909L15.328 11.3319C15.1983 11.0945 15.1309 10.8222 15.1309 10.512H15.0031ZM15.2153 11.3909L15.1026 11.4498C15.2547 11.7282 15.4736 11.947 15.7573 12.105L15.8205 11.9963L15.8837 11.8877C15.6414 11.7528 15.457 11.5681 15.328 11.3319L15.2153 11.3909ZM15.8205 11.9963L15.7573 12.105C16.0436 12.2644 16.3847 12.3411 16.7739 12.3411V12.2161V12.0911C16.4188 12.0911 16.1236 12.0213 15.8837 11.8877L15.8205 11.9963ZM16.7739 12.2161V12.3411C17.0441 12.341 17.2942 12.3042 17.5225 12.2282L17.4814 12.1099L17.4409 11.9913C17.243 12.0572 17.0206 12.091 16.7739 12.0911V12.2161ZM17.4814 12.1099L17.5225 12.2282C17.7547 12.1525 17.9553 12.0426 18.1237 11.8972L18.0391 11.8035L17.9546 11.7097C17.8145 11.8306 17.6442 11.925 17.4409 11.9913L17.4814 12.1099ZM18.0391 11.8035L18.1253 11.8958C18.2942 11.7452 18.4197 11.5648 18.4995 11.3552L18.3798 11.3115L18.2601 11.2679C18.1946 11.4396 18.0924 11.5868 17.953 11.7111L18.0391 11.8035ZM18.3798 11.3115V11.4365H21.8101V11.3115V11.1865H18.3798V11.3115ZM21.8101 11.3115L21.684 11.2915C21.5693 11.981 21.2989 12.5772 20.874 13.0828L20.9728 13.1622L21.0712 13.2419C21.5265 12.7002 21.8147 12.062 21.9362 11.3316L21.8101 11.3115ZM20.9728 13.1622L20.874 13.0828C20.449 13.5842 19.8843 13.9767 19.1752 14.2584L19.2233 14.3743L19.271 14.4903C20.0138 14.1952 20.6158 13.7792 21.0712 13.2419L20.9728 13.1622ZM19.2233 14.3743L19.1752 14.2584C18.4722 14.5352 17.6452 14.6753 16.6915 14.6753V14.8003V14.9253C17.6702 14.9253 18.5313 14.7814 19.271 14.4903L19.2233 14.3743ZM16.6915 14.8003V14.6753C15.5916 14.6753 14.6505 14.4694 13.8649 14.0635L13.8052 14.174L13.7448 14.2842C14.5744 14.7127 15.5591 14.9253 16.6915 14.9253V14.8003ZM13.8052 14.174L13.8649 14.0635C13.084 13.6534 12.4832 13.0672 12.0595 12.303L11.9472 12.3625L11.8345 12.4214C12.2818 13.2283 12.9199 13.8509 13.7448 14.2842L13.8052 14.174ZM11.9472 12.3625L12.0595 12.303C11.9122 12.0329 11.7925 11.7434 11.6964 11.4339L11.5741 11.4702L11.4519 11.5065C11.5523 11.83 11.6785 12.1354 11.8345 12.4214L11.9472 12.3625ZM11.5741 11.4702L11.4621 11.4101C10.9071 12.399 10.1254 13.1595 9.11283 13.6917L9.1733 13.8018L9.23336 13.912C10.2898 13.3569 11.1076 12.5613 11.6861 11.5304L11.5741 11.4702ZM9.1733 13.8018L9.11283 13.6917C8.09571 14.2217 6.88982 14.4885 5.49096 14.4885V14.6135V14.7385C6.92322 14.7385 8.17242 14.4649 9.23336 13.912L9.1733 13.8018ZM5.49096 14.6135V14.4885H0.127778V14.6135V14.7385H5.49096V14.6135ZM0.127778 14.6135H0.255555V0.977051H0.127778H0V14.6135H0.127778ZM0.127778 0.977051V1.10205H5.43729V0.977051L5.4373 0.852051H0.127778V0.977051ZM3.91244 11.4702V11.5952H5.35494V11.4702V11.3452H3.91244V11.4702ZM5.35494 11.4702V11.5952C6.0578 11.5952 6.66494 11.4848 7.17132 11.2579L7.11812 11.1443L7.06531 11.0305C6.60064 11.2386 6.0315 11.3452 5.35494 11.3452V11.4702ZM7.11812 11.1443L7.17132 11.2579C7.69235 11.0266 8.08417 10.6278 8.34947 10.0717L8.23368 10.0188L8.11826 9.96518C7.87544 10.4742 7.52413 10.8267 7.06531 11.0305L7.11812 11.1443ZM8.23368 10.0188L8.34947 10.0717C8.61961 9.51519 8.74948 8.75399 8.74953 7.79591L8.62176 7.79589H8.49398C8.49393 8.73691 8.36518 9.45653 8.11826 9.96518L8.23368 10.0188ZM8.62176 7.79589L8.74953 7.79591C8.74953 6.83753 8.61753 6.07426 8.3425 5.51739L8.22745 5.57178L8.11202 5.62541C8.36313 6.13384 8.49398 6.85479 8.49398 7.79589H8.62176ZM8.22745 5.57178L8.3425 5.51739C8.07217 4.96066 7.67026 4.56279 7.13606 4.33194L7.08444 4.44629L7.03243 4.56047C7.50505 4.76471 7.86525 5.11717 8.11202 5.62541L8.22745 5.57178ZM7.08444 4.44629L7.13606 4.33194C6.61613 4.10537 5.98454 3.99538 5.24638 3.99536V4.12036V4.24536C5.96003 4.24538 6.5542 4.35207 7.03243 4.56047L7.08444 4.44629ZM5.24638 4.12036V3.99536H3.91244V4.12036V4.24536H5.24638V4.12036ZM3.91244 4.12036H3.78466V11.4702H3.91244H4.04022V4.12036H3.91244ZM16.6915 6.83643V6.71143C16.3684 6.71146 16.0688 6.77979 15.7954 6.91829L15.8541 7.02929L15.9129 7.14029C16.1477 7.02141 16.4067 6.96146 16.6915 6.96143V6.83643ZM15.8541 7.02929L15.797 6.91749C15.5241 7.05104 15.3028 7.23891 15.1358 7.47902L15.2414 7.54932L15.3471 7.61961C15.4887 7.41591 15.6763 7.25613 15.9114 7.14111L15.8541 7.02929ZM15.2414 7.54932L15.1349 7.48051C14.9708 7.72387 14.8851 8.00672 14.8755 8.32439L15.0031 8.32813L15.1309 8.33186C15.1394 8.05511 15.2131 7.81846 15.3481 7.61813L15.2414 7.54932ZM15.0031 8.32813V8.45313H18.3523V8.32813V8.20313H15.0031V8.32813ZM18.3523 8.32813L18.4801 8.32623C18.4753 8.01217 18.3927 7.73056 18.2281 7.48657L18.1214 7.55542L18.0149 7.62427C18.1497 7.82416 18.2203 8.05818 18.2245 8.33002L18.3523 8.32813ZM18.1214 7.55542L18.2297 7.48898C18.0719 7.24286 17.8563 7.05214 17.5867 6.91791L17.5288 7.02929L17.4708 7.14069C17.7004 7.25503 17.8807 7.41522 18.0132 7.62187L18.1214 7.55542ZM17.5288 7.02929L17.5892 6.91917C17.3233 6.77956 17.0228 6.71143 16.6915 6.71143V6.83643V6.96143C16.9861 6.96143 17.2442 7.02177 17.4684 7.13946L17.5288 7.02929ZM17.8082 3.10839V2.98339H15.3301V3.10839V3.23339H17.8082V3.10839ZM15.3301 3.10839L15.4363 3.03887L13.3948 0.0554664L13.2886 0.125L13.1824 0.194533L15.2239 3.17793L15.3301 3.10839ZM13.2886 0.125V0.250001H16.5006V0.125V0H13.2886V0.125ZM16.5006 0.125L16.3831 0.174263L17.6908 3.15766L17.8082 3.10839L17.9257 3.05913L16.618 0.0757374L16.5006 0.125Z" fill="white"/>
</g>
</g>
<defs>
<linearGradient id="paint0_linear_249_21" x1="-0.132596" y1="0.863526" x2="18.7375" y2="15.0091" gradientUnits="userSpaceOnUse">
<stop stop-color="#FFFB00"/>
<stop offset="1" stop-color="#FF0022"/>
</linearGradient>
<clipPath id="clip0_249_21">
<rect width="23" height="15" fill="white"/>
</clipPath>
</defs>
</svg>
